<mxfile host="app.diagrams.net" modified="2021-10-25T12:44:59.579Z" agent="5.0 (Macintosh; Intel Mac OS X 10_15_7) AppleWebKit/537.36 (KHTML, like Gecko) Chrome/95.0.4638.54 Safari/537.36" etag="YiFh0BTS0PjW-7dQRNBj" version="15.5.9" type="github">
  <diagram id="_Y5LTQmzuMb5N7KYShm6" name="第 1 页">
    <mxGraphModel dx="1426" dy="769" grid="1" gridSize="10" guides="1" tooltips="1" connect="1" arrows="1" fold="1" page="1" pageScale="1" pageWidth="1169" pageHeight="827" math="0" shadow="0">
      <root>
        <mxCell id="0" />
        <mxCell id="1" parent="0" />
        <mxCell id="bwYaWfdodfE0C4HcY9af-1" value="" style="rounded=0;whiteSpace=wrap;html=1;fillColor=#dae8fc;strokeColor=#6c8ebf;gradientDirection=north;movable=0;gradientColor=#556F96;" parent="1" vertex="1">
          <mxGeometry x="20" y="29" width="1440" height="721" as="geometry" />
        </mxCell>
        <mxCell id="bwYaWfdodfE0C4HcY9af-5" value="" style="rounded=0;whiteSpace=wrap;html=1;strokeColor=#FFFFFF;fillColor=none;strokeWidth=2;" parent="1" vertex="1">
          <mxGeometry x="50" y="85" width="1390" height="80" as="geometry" />
        </mxCell>
        <mxCell id="bwYaWfdodfE0C4HcY9af-6" value="&lt;font color=&quot;#ffffff&quot; style=&quot;font-size: 18px&quot;&gt;业务形式&lt;/font&gt;" style="text;html=1;strokeColor=none;fillColor=none;align=center;verticalAlign=middle;whiteSpace=wrap;rounded=0;dashed=1;" parent="1" vertex="1">
          <mxGeometry x="40" y="115" width="140" height="20" as="geometry" />
        </mxCell>
        <mxCell id="bwYaWfdodfE0C4HcY9af-16" value="" style="rounded=0;whiteSpace=wrap;html=1;strokeWidth=2;gradientDirection=north;fillColor=none;strokeColor=#FFFFFF;" parent="1" vertex="1">
          <mxGeometry x="50" y="190" width="1390" height="360" as="geometry" />
        </mxCell>
        <mxCell id="bwYaWfdodfE0C4HcY9af-7" value="&lt;font color=&quot;#ffffff&quot;&gt;线索&lt;/font&gt;" style="rounded=0;whiteSpace=wrap;html=1;dashed=1;strokeColor=none;strokeWidth=2;fillColor=#9532FA;" parent="1" vertex="1">
          <mxGeometry x="270" y="110" width="100" height="30" as="geometry" />
        </mxCell>
        <mxCell id="bwYaWfdodfE0C4HcY9af-11" value="" style="edgeStyle=orthogonalEdgeStyle;rounded=0;orthogonalLoop=1;jettySize=auto;html=1;exitX=1;exitY=0.5;exitDx=0;exitDy=0;fontColor=#FFFFFF;strokeColor=#FFFFFF;" parent="1" source="bwYaWfdodfE0C4HcY9af-7" target="bwYaWfdodfE0C4HcY9af-10" edge="1">
          <mxGeometry relative="1" as="geometry">
            <mxPoint x="560" y="125" as="sourcePoint" />
          </mxGeometry>
        </mxCell>
        <mxCell id="bwYaWfdodfE0C4HcY9af-13" value="" style="edgeStyle=orthogonalEdgeStyle;rounded=0;orthogonalLoop=1;jettySize=auto;html=1;strokeColor=#FFFFFF;" parent="1" source="bwYaWfdodfE0C4HcY9af-10" target="bwYaWfdodfE0C4HcY9af-12" edge="1">
          <mxGeometry relative="1" as="geometry" />
        </mxCell>
        <mxCell id="bwYaWfdodfE0C4HcY9af-10" value="触达及运营" style="rounded=0;whiteSpace=wrap;html=1;dashed=1;strokeColor=none;strokeWidth=2;fillColor=#9933FF;fontColor=#FFFFFF;" parent="1" vertex="1">
          <mxGeometry x="585" y="110" width="150" height="30" as="geometry" />
        </mxCell>
        <mxCell id="bwYaWfdodfE0C4HcY9af-15" value="" style="edgeStyle=orthogonalEdgeStyle;rounded=0;orthogonalLoop=1;jettySize=auto;html=1;strokeColor=#FFFFFF;" parent="1" source="bwYaWfdodfE0C4HcY9af-12" target="bwYaWfdodfE0C4HcY9af-14" edge="1">
          <mxGeometry relative="1" as="geometry" />
        </mxCell>
        <mxCell id="bwYaWfdodfE0C4HcY9af-12" value="下派" style="rounded=0;whiteSpace=wrap;html=1;dashed=1;strokeColor=none;strokeWidth=2;fillColor=#9933FF;fontColor=#FFFFFF;" parent="1" vertex="1">
          <mxGeometry x="950" y="110" width="100" height="30" as="geometry" />
        </mxCell>
        <mxCell id="bwYaWfdodfE0C4HcY9af-14" value="服务及回流" style="rounded=0;whiteSpace=wrap;html=1;dashed=1;strokeColor=none;strokeWidth=2;fillColor=#9933FF;fontColor=#FFFFFF;" parent="1" vertex="1">
          <mxGeometry x="1250" y="110" width="140" height="30" as="geometry" />
        </mxCell>
        <mxCell id="bwYaWfdodfE0C4HcY9af-17" value="&lt;font color=&quot;#ffffff&quot; style=&quot;font-size: 17px&quot;&gt;产品功能&lt;/font&gt;" style="text;html=1;strokeColor=none;fillColor=none;align=center;verticalAlign=middle;whiteSpace=wrap;rounded=0;dashed=1;" parent="1" vertex="1">
          <mxGeometry x="70" y="320" width="20" height="90" as="geometry" />
        </mxCell>
        <mxCell id="bwYaWfdodfE0C4HcY9af-19" value="挖潜/拉新" style="swimlane;dashed=1;strokeColor=#FFFFFF;strokeWidth=2;fillColor=none;gradientColor=#ffffff;gradientDirection=north;startSize=23;fontColor=#FFFFFF;" parent="1" vertex="1">
          <mxGeometry x="110" y="220" width="230" height="130" as="geometry">
            <mxRectangle x="110" y="240" width="130" height="23" as="alternateBounds" />
          </mxGeometry>
        </mxCell>
        <mxCell id="bwYaWfdodfE0C4HcY9af-31" value="&lt;font&gt;留&lt;/font&gt;资&lt;span style=&quot;font-family: monospace; font-size: 0px;&quot;&gt;%3CmxGraphModel%3E%3Croot%3E%3CmxCell%20id%3D%220%22%2F%3E%3CmxCell%20id%3D%221%22%20parent%3D%220%22%2F%3E%3CmxCell%20id%3D%222%22%20value%3D%22%26lt%3Bfont%20color%3D%26quot%3B%23ffffff%26quot%3B%26gt%3B%E7%BA%BF%E7%B4%A2%26lt%3B%2Ffont%26gt%3B%22%20style%3D%22rounded%3D0%3BwhiteSpace%3Dwrap%3Bhtml%3D1%3Bdashed%3D1%3BstrokeColor%3Dnone%3BstrokeWidth%3D2%3BfillColor%3D%23B5739D%3B%22%20vertex%3D%221%22%20parent%3D%221%22%3E%3CmxGeometry%20x%3D%22170%22%20y%3D%22175%22%20width%3D%2270%22%20height%3D%2230%22%20as%3D%22geometry%22%2F%3E%3C%2FmxCell%3E%3C%2Froot%3E%3C%2FmxGraphModel%3E&lt;/span&gt;" style="rounded=0;whiteSpace=wrap;html=1;dashed=1;strokeColor=none;strokeWidth=2;fillColor=#90BCFF;gradientDirection=north;fontColor=#FFFFFF;" parent="bwYaWfdodfE0C4HcY9af-19" vertex="1">
          <mxGeometry x="10" y="30" width="60" height="40" as="geometry" />
        </mxCell>
        <mxCell id="bwYaWfdodfE0C4HcY9af-34" value="入会&lt;span style=&quot;font-family: monospace ; font-size: 0px&quot;&gt;3CmxGraphModel%3E%3Croot%3E%3CmxCell%20id%3D%220%22%2F%3E%3CmxCell%20id%3D%221%22%20parent%3D%220%22%2F%3E%3CmxCell%20id%3D%222%22%20value%3D%22%26lt%3Bfont%20color%3D%26quot%3B%23ffffff%26quot%3B%26gt%3B%E7%BA%BF%E7%B4%A2%26lt%3B%2Ffont%26gt%3B%22%20style%3D%22rounded%3D0%3BwhiteSpace%3Dwrap%3Bhtml%3D1%3Bdashed%3D1%3BstrokeColor%3Dnone%3BstrokeWidth%3D2%3BfillColor%3D%23B5739D%3B%22%20vertex%3D%221%22%20parent%3D%221%22%3E%3CmxGeometry%20x%3D%22170%22%20y%3D%22175%22%20width%3D%2270%22%20height%3D%2230%22%20as%3D%22geometry%22%2F%3E%3C%2FmxCell%3E%3C%2Froot%3E%3C%2FmxGraphModel%3E&lt;/span&gt;" style="rounded=0;whiteSpace=wrap;html=1;dashed=1;strokeColor=none;strokeWidth=2;fillColor=#90BCFF;gradientDirection=north;fontColor=#FFFFFF;" parent="bwYaWfdodfE0C4HcY9af-19" vertex="1">
          <mxGeometry x="85" y="30" width="60" height="40" as="geometry" />
        </mxCell>
        <mxCell id="bwYaWfdodfE0C4HcY9af-35" value="用户导入&lt;span style=&quot;color: rgba(0 , 0 , 0 , 0) ; font-family: monospace ; font-size: 0px&quot;&gt;%3CmxGraphModel%3E%3Croot%3E%3CmxCell%20id%3D%220%22%2F%3E%3CmxCell%20id%3D%221%22%20parent%3D%220%22%2F%3E%3CmxCell%20id%3D%222%22%20value%3D%22%E5%85%A5%E4%BC%9A%26lt%3Bspan%20style%3D%26quot%3Bfont-family%3A%20monospace%20%3B%20font-size%3A%200px%26quot%3B%26gt%3B3CmxGraphModel%253E%253Croot%253E%253CmxCell%2520id%253D%25220%2522%252F%253E%253CmxCell%2520id%253D%25221%2522%2520parent%253D%25220%2522%252F%253E%253CmxCell%2520id%253D%25222%2522%2520value%253D%2522%2526lt%253Bfont%2520color%253D%2526quot%253B%2523ffffff%2526quot%253B%2526gt%253B%25E7%25BA%25BF%25E7%25B4%25A2%2526lt%253B%252Ffont%2526gt%253B%2522%2520style%253D%2522rounded%253D0%253BwhiteSpace%253Dwrap%253Bhtml%253D1%253Bdashed%253D1%253BstrokeColor%253Dnone%253BstrokeWidth%253D2%253BfillColor%253D%2523B5739D%253B%2522%2520vertex%253D%25221%2522%2520parent%253D%25221%2522%253E%253CmxGeometry%2520x%253D%2522170%2522%2520y%253D%2522175%2522%2520width%253D%252270%2522%2520height%253D%252230%2522%2520as%253D%2522geometry%2522%252F%253E%253C%252FmxCell%253E%253C%252Froot%253E%253C%252FmxGraphModel%253E%26lt%3B%2Fspan%26gt%3B%22%20style%3D%22rounded%3D0%3BwhiteSpace%3Dwrap%3Bhtml%3D1%3Bdashed%3D1%3BstrokeColor%3Dnone%3BstrokeWidth%3D2%3BfillColor%3D%2390BCFF%3BgradientDirection%3Dnorth%3BfontColor%3D%23FFFFFF%3B%22%20vertex%3D%221%22%20parent%3D%221%22%3E%3CmxGeometry%20x%3D%22225%22%20y%3D%22250%22%20width%3D%2260%22%20height%3D%2240%22%20as%3D%22geometry%22%2F%3E%3C%2FmxCell%3E%3C%2Froot%3E%3C%2FmxGraphModel%3E&lt;/span&gt;" style="rounded=0;whiteSpace=wrap;html=1;dashed=1;strokeColor=none;strokeWidth=2;fillColor=#90BCFF;gradientDirection=north;fontColor=#FFFFFF;" parent="bwYaWfdodfE0C4HcY9af-19" vertex="1">
          <mxGeometry x="160" y="30" width="60" height="40" as="geometry" />
        </mxCell>
        <mxCell id="bwYaWfdodfE0C4HcY9af-36" value="批量导入&lt;span style=&quot;color: rgba(0 , 0 , 0 , 0) ; font-family: monospace ; font-size: 0px&quot;&gt;%3CmxGraphModel%3E%3Croot%3E%3CmxCell%20id%3D%220%22%2F%3E%3CmxCell%20id%3D%221%22%20parent%3D%220%22%2F%3E%3CmxCell%20id%3D%222%22%20value%3D%22%E5%85%A5%E4%BC%9A%26lt%3Bspan%20style%3D%26quot%3Bfont-family%3A%20monospace%20%3B%20font-size%3A%200px%26quot%3B%26gt%3B3CmxGraphModel%253E%253Croot%253E%253CmxCell%2520id%253D%25220%2522%252F%253E%253CmxCell%2520id%253D%25221%2522%2520parent%253D%25220%2522%252F%253E%253CmxCell%2520id%253D%25222%2522%2520value%253D%2522%2526lt%253Bfont%2520color%253D%2526quot%253B%2523ffffff%2526quot%253B%2526gt%253B%25E7%25BA%25BF%25E7%25B4%25A2%2526lt%253B%252Ffont%2526gt%253B%2522%2520style%253D%2522rounded%253D0%253BwhiteSpace%253Dwrap%253Bhtml%253D1%253Bdashed%253D1%253BstrokeColor%253Dnone%253BstrokeWidth%253D2%253BfillColor%253D%2523B5739D%253B%2522%2520vertex%253D%25221%2522%2520parent%253D%25221%2522%253E%253CmxGeometry%2520x%253D%2522170%2522%2520y%253D%2522175%2522%2520width%253D%252270%2522%2520height%253D%252230%2522%2520as%253D%2522geometry%2522%252F%253E%253C%252FmxCell%253E%253C%252Froot%253E%253C%252FmxGraphModel%253E%26lt%3B%2Fspan%26gt%3B%22%20style%3D%22rounded%3D0%3BwhiteSpace%3Dwrap%3Bhtml%3D1%3Bdashed%3D1%3BstrokeColor%3Dnone%3BstrokeWidth%3D2%3BfillColor%3D%2390BCFF%3BgradientDirection%3Dnorth%3BfontColor%3D%23FFFFFF%3B%22%20vertex%3D%221%22%20parent%3D%221%22%3E%3CmxGeometry%20x%3D%22225%22%20y%3D%22250%22%20width%3D%2260%22%20height%3D%2240%22%20as%3D%22geometry%22%2F%3E%3C%2FmxCell%3E%3C%2Froot%3E%3C%2FmxGraphModel%3E&lt;/span&gt;" style="rounded=0;whiteSpace=wrap;html=1;dashed=1;strokeColor=none;strokeWidth=2;fillColor=#90BCFF;gradientDirection=north;fontColor=#FFFFFF;" parent="1" vertex="1">
          <mxGeometry x="120" y="300" width="60" height="40" as="geometry" />
        </mxCell>
        <mxCell id="bwYaWfdodfE0C4HcY9af-37" value="客户运营" style="swimlane;dashed=1;strokeColor=#FFFFFF;strokeWidth=2;fillColor=none;gradientColor=#ffffff;gradientDirection=north;fontColor=#FFFFFF;" parent="1" vertex="1">
          <mxGeometry x="355" y="220" width="305" height="130" as="geometry">
            <mxRectangle x="110" y="240" width="130" height="23" as="alternateBounds" />
          </mxGeometry>
        </mxCell>
        <mxCell id="bwYaWfdodfE0C4HcY9af-38" value="客户详情" style="rounded=0;whiteSpace=wrap;html=1;dashed=1;strokeColor=none;strokeWidth=2;fillColor=#90BCFF;gradientDirection=north;fontColor=#FFFFFF;" parent="bwYaWfdodfE0C4HcY9af-37" vertex="1">
          <mxGeometry x="10" y="30" width="60" height="40" as="geometry" />
        </mxCell>
        <mxCell id="bwYaWfdodfE0C4HcY9af-39" value="房屋档案" style="rounded=0;whiteSpace=wrap;html=1;dashed=1;strokeColor=none;strokeWidth=2;fillColor=#90BCFF;gradientDirection=north;fontColor=#FFFFFF;" parent="bwYaWfdodfE0C4HcY9af-37" vertex="1">
          <mxGeometry x="85" y="30" width="60" height="40" as="geometry" />
        </mxCell>
        <mxCell id="bwYaWfdodfE0C4HcY9af-40" value="渠道管理&lt;span style=&quot;color: rgba(0 , 0 , 0 , 0) ; font-family: monospace ; font-size: 0px&quot;&gt;%3CmxGraphModel%3E%3Croot%3E%3CmxCell%20id%3D%220%22%2F%3E%3CmxCell%20id%3D%221%22%20parent%3D%220%22%2F%3E%3CmxCell%20id%3D%222%22%20value%3D%22%E5%85%A5%E4%BC%9A%26lt%3Bspan%20style%3D%26quot%3Bfont-family%3A%20monospace%20%3B%20font-size%3A%200px%26quot%3B%26gt%3B3CmxGraphModel%253E%253Croot%253E%253CmxCell%2520id%253D%25220%2522%252F%253E%253CmxCell%2520id%253D%25221%2522%2520parent%253D%25220%2522%252F%253E%253CmxCell%2520id%253D%25222%2522%2520value%253D%2522%2526lt%253Bfont%2520color%253D%2526quot%253B%2523ffffff%2526quot%253B%2526gt%253B%25E7%25BA%25BF%25E7%25B4%25A2%2526lt%253B%252Ffont%2526gt%253B%2522%2520style%253D%2522rounded%253D0%253BwhiteSpace%253Dwrap%253Bhtml%253D1%253Bdashed%253D1%253BstrokeColor%253Dnone%253BstrokeWidth%253D2%253BfillColor%253D%2523B5739D%253B%2522%2520vertex%253D%25221%2522%2520parent%253D%25221%2522%253E%253CmxGeometry%2520x%253D%2522170%2522%2520y%253D%2522175%2522%2520width%253D%252270%2522%2520height%253D%252230%2522%2520as%253D%2522geometry%2522%252F%253E%253C%252FmxCell%253E%253C%252Froot%253E%253C%252FmxGraphModel%253E%26lt%3B%2Fspan%26gt%3B%22%20style%3D%22rounded%3D0%3BwhiteSpace%3Dwrap%3Bhtml%3D1%3Bdashed%3D1%3BstrokeColor%3Dnone%3BstrokeWidth%3D2%3BfillColor%3D%2390BCFF%3BgradientDirection%3Dnorth%3BfontColor%3D%23FFFFFF%3B%22%20vertex%3D%221%22%20parent%3D%221%22%3E%3CmxGeometry%20x%3D%22225%22%20y%3D%22250%22%20width%3D%2260%22%20height%3D%2240%22%20as%3D%22geometry%22%2F%3E%3C%2FmxCell%3E%3C%2Froot%3E%3C%2FmxGraphModel%3E&lt;/span&gt;" style="rounded=0;whiteSpace=wrap;html=1;dashed=1;strokeColor=none;strokeWidth=2;fillColor=#90BCFF;gradientDirection=north;fontColor=#FFFFFF;" parent="bwYaWfdodfE0C4HcY9af-37" vertex="1">
          <mxGeometry x="160" y="30" width="60" height="40" as="geometry" />
        </mxCell>
        <mxCell id="bwYaWfdodfE0C4HcY9af-46" value="分派" style="rounded=0;whiteSpace=wrap;html=1;dashed=1;strokeColor=none;strokeWidth=2;fillColor=#90BCFF;gradientDirection=north;fontColor=#FFFFFF;" parent="bwYaWfdodfE0C4HcY9af-37" vertex="1">
          <mxGeometry x="230" y="30" width="60" height="40" as="geometry" />
        </mxCell>
        <mxCell id="bwYaWfdodfE0C4HcY9af-51" value="客户圈选" style="rounded=0;whiteSpace=wrap;html=1;dashed=1;strokeColor=none;strokeWidth=2;fillColor=#666666;gradientDirection=north;fontColor=#FFFFFF;" parent="bwYaWfdodfE0C4HcY9af-37" vertex="1">
          <mxGeometry x="85" y="80" width="60" height="40" as="geometry" />
        </mxCell>
        <mxCell id="kZM8sqfFHhyPms-0oT-2-8" value="客服管理" style="rounded=0;whiteSpace=wrap;html=1;dashed=1;strokeColor=none;strokeWidth=2;fillColor=#666666;gradientDirection=north;fontColor=#FFFFFF;" parent="bwYaWfdodfE0C4HcY9af-37" vertex="1">
          <mxGeometry x="160" y="80" width="60" height="40" as="geometry" />
        </mxCell>
        <mxCell id="Wau9Gw6_sfsYt9Wz2bvp-1" value="消息中心" style="rounded=0;whiteSpace=wrap;html=1;dashed=1;strokeColor=none;strokeWidth=2;fillColor=#666666;gradientDirection=north;fontColor=#FFFFFF;" vertex="1" parent="bwYaWfdodfE0C4HcY9af-37">
          <mxGeometry x="10" y="80" width="60" height="40" as="geometry" />
        </mxCell>
        <mxCell id="bwYaWfdodfE0C4HcY9af-42" value="下派" style="swimlane;dashed=1;strokeColor=#FFFFFF;strokeWidth=2;fillColor=none;gradientColor=#ffffff;gradientDirection=north;fontColor=#FFFFFF;" parent="1" vertex="1">
          <mxGeometry x="950" y="220" width="230" height="130" as="geometry">
            <mxRectangle x="110" y="240" width="130" height="23" as="alternateBounds" />
          </mxGeometry>
        </mxCell>
        <mxCell id="bwYaWfdodfE0C4HcY9af-43" value="多业务下派" style="rounded=0;whiteSpace=wrap;html=1;dashed=1;strokeColor=none;strokeWidth=2;fillColor=#90BCFF;gradientDirection=north;fontColor=#FFFFFF;" parent="bwYaWfdodfE0C4HcY9af-42" vertex="1">
          <mxGeometry x="10" y="30" width="60" height="40" as="geometry" />
        </mxCell>
        <mxCell id="bwYaWfdodfE0C4HcY9af-44" value="服务回流" style="rounded=0;whiteSpace=wrap;html=1;dashed=1;strokeColor=none;strokeWidth=2;fillColor=#666666;gradientDirection=north;fontColor=#FFFFFF;" parent="bwYaWfdodfE0C4HcY9af-42" vertex="1">
          <mxGeometry x="85" y="30" width="60" height="40" as="geometry" />
        </mxCell>
        <mxCell id="kZM8sqfFHhyPms-0oT-2-1" value="云管家" style="rounded=0;whiteSpace=wrap;html=1;dashed=1;strokeColor=none;strokeWidth=2;fillColor=#666666;gradientDirection=north;fontColor=#FFFFFF;" parent="bwYaWfdodfE0C4HcY9af-42" vertex="1">
          <mxGeometry x="160" y="30" width="60" height="40" as="geometry" />
        </mxCell>
        <mxCell id="bwYaWfdodfE0C4HcY9af-47" value="触达" style="swimlane;dashed=1;strokeColor=#FFFFFF;strokeWidth=2;fillColor=none;gradientColor=#ffffff;gradientDirection=north;fontColor=#FFFFFF;" parent="1" vertex="1">
          <mxGeometry x="700" y="220" width="230" height="130" as="geometry">
            <mxRectangle x="110" y="240" width="130" height="23" as="alternateBounds" />
          </mxGeometry>
        </mxCell>
        <mxCell id="bwYaWfdodfE0C4HcY9af-48" value="短信" style="rounded=0;whiteSpace=wrap;html=1;dashed=1;strokeColor=none;strokeWidth=2;fillColor=#90BCFF;gradientDirection=north;fontColor=#FFFFFF;" parent="bwYaWfdodfE0C4HcY9af-47" vertex="1">
          <mxGeometry x="10" y="30" width="60" height="40" as="geometry" />
        </mxCell>
        <mxCell id="bwYaWfdodfE0C4HcY9af-49" value="双呼" style="rounded=0;whiteSpace=wrap;html=1;dashed=1;strokeColor=none;strokeWidth=2;fillColor=#90BCFF;gradientDirection=north;fontColor=#FFFFFF;" parent="bwYaWfdodfE0C4HcY9af-47" vertex="1">
          <mxGeometry x="150" y="30" width="60" height="40" as="geometry" />
        </mxCell>
        <mxCell id="bwYaWfdodfE0C4HcY9af-52" value="坐席" style="rounded=0;whiteSpace=wrap;html=1;dashed=1;strokeColor=none;strokeWidth=2;fillColor=#666666;gradientDirection=north;fontColor=#FFFFFF;" parent="bwYaWfdodfE0C4HcY9af-47" vertex="1">
          <mxGeometry x="10" y="80" width="60" height="40" as="geometry" />
        </mxCell>
        <mxCell id="bwYaWfdodfE0C4HcY9af-54" value="双向触达" style="rounded=0;whiteSpace=wrap;html=1;dashed=1;strokeColor=none;strokeWidth=2;fillColor=#666666;gradientDirection=north;fontColor=#FFFFFF;" parent="bwYaWfdodfE0C4HcY9af-47" vertex="1">
          <mxGeometry x="150" y="80" width="60" height="40" as="geometry" />
        </mxCell>
        <mxCell id="bwYaWfdodfE0C4HcY9af-53" value="跟进" style="rounded=0;whiteSpace=wrap;html=1;dashed=1;strokeColor=none;strokeWidth=2;fillColor=#90BCFF;gradientDirection=north;fontColor=#FFFFFF;" parent="bwYaWfdodfE0C4HcY9af-47" vertex="1">
          <mxGeometry x="80" y="30" width="60" height="40" as="geometry" />
        </mxCell>
        <mxCell id="bwYaWfdodfE0C4HcY9af-50" value="企微" style="rounded=0;whiteSpace=wrap;html=1;dashed=1;strokeColor=none;strokeWidth=2;fillColor=#666666;gradientDirection=north;fontColor=#FFFFFF;" parent="1" vertex="1">
          <mxGeometry x="780" y="300" width="60" height="40" as="geometry" />
        </mxCell>
        <mxCell id="kZM8sqfFHhyPms-0oT-2-2" value="配置化" style="swimlane;dashed=1;strokeColor=#FFFFFF;strokeWidth=2;fillColor=none;gradientColor=#ffffff;gradientDirection=north;fontColor=#FFFFFF;" parent="1" vertex="1">
          <mxGeometry x="110" y="380" width="550" height="140" as="geometry">
            <mxRectangle x="110" y="240" width="130" height="23" as="alternateBounds" />
          </mxGeometry>
        </mxCell>
        <mxCell id="kZM8sqfFHhyPms-0oT-2-3" value="CRM配置平台" style="rounded=0;whiteSpace=wrap;html=1;dashed=1;strokeColor=none;strokeWidth=2;fillColor=#90BCFF;gradientDirection=north;fontColor=#FFFFFF;" parent="kZM8sqfFHhyPms-0oT-2-2" vertex="1">
          <mxGeometry x="40" y="30" width="130" height="40" as="geometry" />
        </mxCell>
        <mxCell id="kZM8sqfFHhyPms-0oT-2-6" value="自动分派配置" style="rounded=0;whiteSpace=wrap;html=1;dashed=1;strokeColor=none;strokeWidth=2;fillColor=#90BCFF;gradientDirection=north;fontColor=#FFFFFF;" parent="kZM8sqfFHhyPms-0oT-2-2" vertex="1">
          <mxGeometry x="200" y="30" width="130" height="40" as="geometry" />
        </mxCell>
        <mxCell id="kZM8sqfFHhyPms-0oT-2-7" value="渠道树配置" style="rounded=0;whiteSpace=wrap;html=1;dashed=1;strokeColor=none;strokeWidth=2;fillColor=#90BCFF;gradientDirection=north;fontColor=#FFFFFF;" parent="kZM8sqfFHhyPms-0oT-2-2" vertex="1">
          <mxGeometry x="360" y="30" width="130" height="40" as="geometry" />
        </mxCell>
        <mxCell id="Wau9Gw6_sfsYt9Wz2bvp-5" value="" style="rounded=0;whiteSpace=wrap;html=1;fillColor=none;strokeColor=#FFFFFF;strokeWidth=2;" vertex="1" parent="1">
          <mxGeometry x="50" y="570" width="1390" height="80" as="geometry" />
        </mxCell>
        <mxCell id="Wau9Gw6_sfsYt9Wz2bvp-6" value="每平每屋客户管理后台BUC" style="rounded=0;whiteSpace=wrap;html=1;strokeColor=#006EAF;strokeWidth=2;fillColor=#1ba1e2;fontColor=#ffffff;" vertex="1" parent="1">
          <mxGeometry x="300" y="580" width="220" height="60" as="geometry" />
        </mxCell>
        <mxCell id="Wau9Gw6_sfsYt9Wz2bvp-7" value="&lt;font style=&quot;font-size: 16px&quot; color=&quot;#ffffff&quot;&gt;板块&lt;/font&gt;" style="text;html=1;align=center;verticalAlign=middle;whiteSpace=wrap;rounded=0;" vertex="1" parent="1">
          <mxGeometry x="60" y="595" width="60" height="30" as="geometry" />
        </mxCell>
        <mxCell id="Wau9Gw6_sfsYt9Wz2bvp-8" value="每平每屋客户中心化" style="rounded=0;whiteSpace=wrap;html=1;strokeColor=#006EAF;strokeWidth=2;fillColor=#1ba1e2;fontColor=#ffffff;" vertex="1" parent="1">
          <mxGeometry x="640" y="580" width="220" height="60" as="geometry" />
        </mxCell>
        <mxCell id="Wau9Gw6_sfsYt9Wz2bvp-9" value="每平每屋直营客户中心化" style="rounded=0;whiteSpace=wrap;html=1;strokeColor=#006EAF;strokeWidth=2;fillColor=#1ba1e2;fontColor=#ffffff;" vertex="1" parent="1">
          <mxGeometry x="960" y="580" width="220" height="60" as="geometry" />
        </mxCell>
        <mxCell id="Wau9Gw6_sfsYt9Wz2bvp-10" value="" style="rounded=0;whiteSpace=wrap;html=1;fontSize=16;fontColor=#FFFFFF;strokeColor=#FFFFFF;strokeWidth=2;fillColor=none;" vertex="1" parent="1">
          <mxGeometry x="50" y="670" width="1390" height="60" as="geometry" />
        </mxCell>
        <mxCell id="Wau9Gw6_sfsYt9Wz2bvp-11" value="定制" style="rounded=0;whiteSpace=wrap;html=1;fontSize=16;fontColor=#FFFFFF;strokeColor=#FFFFFF;strokeWidth=2;fillColor=none;" vertex="1" parent="1">
          <mxGeometry x="340" y="680" width="115" height="40" as="geometry" />
        </mxCell>
        <mxCell id="Wau9Gw6_sfsYt9Wz2bvp-12" value="佳装" style="rounded=0;whiteSpace=wrap;html=1;fontSize=16;fontColor=#FFFFFF;strokeColor=#FFFFFF;strokeWidth=2;fillColor=none;" vertex="1" parent="1">
          <mxGeometry x="585" y="680" width="115" height="40" as="geometry" />
        </mxCell>
        <mxCell id="Wau9Gw6_sfsYt9Wz2bvp-13" value="设计" style="rounded=0;whiteSpace=wrap;html=1;fontSize=16;fontColor=#FFFFFF;strokeColor=#FFFFFF;strokeWidth=2;fillColor=none;" vertex="1" parent="1">
          <mxGeometry x="860" y="680" width="115" height="40" as="geometry" />
        </mxCell>
        <mxCell id="Wau9Gw6_sfsYt9Wz2bvp-14" value="直营店" style="rounded=0;whiteSpace=wrap;html=1;fontSize=16;fontColor=#FFFFFF;strokeColor=#FFFFFF;strokeWidth=2;fillColor=none;" vertex="1" parent="1">
          <mxGeometry x="1210" y="680" width="115" height="40" as="geometry" />
        </mxCell>
        <mxCell id="Wau9Gw6_sfsYt9Wz2bvp-16" value="下游服务" style="text;html=1;strokeColor=none;fillColor=none;align=center;verticalAlign=middle;whiteSpace=wrap;rounded=0;fontSize=16;fontColor=#FFFFFF;" vertex="1" parent="1">
          <mxGeometry x="50" y="685" width="100" height="30" as="geometry" />
        </mxCell>
      </root>
    </mxGraphModel>
  </diagram>
</mxfile>
